<svg width="50" height="50" viewBox="0 0 50 50" fill="none" xmlns="http://www.w3.org/2000/svg">
<path d="M50 25C50 11.1929 38.8071 0 25 0C11.1929 0 0 11.1929 0 25C0 38.8071 11.1929 50 25 50C38.8071 50 50 38.8071 50 25Z" fill="#25D366"/>
<path fill-rule="evenodd" clip-rule="evenodd" d="M31.7001 27.2698C31.364 27.1016 29.7113 26.2884 29.4031 26.1761C29.095 26.0639 28.8709 26.008 28.6468 26.3444C28.4227 26.6808 27.7785 27.4381 27.5824 27.6625C27.3863 27.8868 27.1902 27.915 26.8541 27.7466C26.5179 27.5783 25.4348 27.2234 24.1508 26.0781C23.1515 25.1867 22.4768 24.0859 22.2808 23.7494C22.0847 23.4128 22.2598 23.2309 22.4281 23.0633C22.5794 22.9127 22.7643 22.6707 22.9324 22.4744C23.1005 22.2781 23.1565 22.1378 23.2685 21.9136C23.3806 21.6892 23.3246 21.4929 23.2405 21.3247C23.1565 21.1565 22.4842 19.5018 22.2041 18.8286C21.9312 18.1732 21.6541 18.262 21.4477 18.2516C21.2519 18.2418 21.0275 18.2398 20.8035 18.2398C20.5794 18.2398 20.2151 18.3239 19.907 18.6604C19.5989 18.9969 18.7305 19.8102 18.7305 21.4648C18.7305 23.1195 19.935 24.7178 20.1031 24.9422C20.2712 25.1666 22.4735 28.562 25.8457 30.0181C26.6477 30.3645 27.2738 30.5713 27.762 30.7262C28.5673 30.9821 29.3001 30.9459 29.8793 30.8594C30.5252 30.7629 31.8682 30.0462 32.1484 29.2611C32.4284 28.4757 32.4284 27.8026 32.3444 27.6625C32.2604 27.5222 32.0363 27.4381 31.7001 27.2698ZM25.5666 35.6446H25.562C23.5555 35.6438 21.5875 35.1047 19.8707 34.086L19.4623 33.8436L15.2302 34.9538L16.3598 30.8274L16.094 30.4043C14.9746 28.624 14.3834 26.5663 14.3843 24.4534C14.3867 18.2882 19.403 13.2722 25.571 13.2722C28.5578 13.2733 31.3653 14.4379 33.4766 16.5516C35.5877 18.6651 36.7497 21.4746 36.7486 24.4625C36.7461 30.6282 31.7298 35.6446 25.5666 35.6446ZM35.0834 14.9455C32.5433 12.4025 29.1654 11.0015 25.5664 11C18.151 11 12.1157 17.0349 12.1128 24.4526C12.1118 26.8238 12.7313 29.1382 13.9086 31.1785L12 38.15L19.1319 36.2792C21.097 37.351 23.3094 37.916 25.5611 37.9167H25.5666H25.5666C32.9813 37.9167 39.0171 31.8812 39.0201 24.4634C39.0215 20.8686 37.6234 17.4885 35.0834 14.9455Z" fill="white"/>
</svg>
