<svg width="360" height="50" viewBox="0 0 360 50" fill="none" xmlns="http://www.w3.org/2000/svg">
<path d="M0 25C0 11.1929 11.1929 0 25 0H335C348.807 0 360 11.1929 360 25C360 38.8071 348.807 50 335 50H25C11.1929 50 0 38.8071 0 25Z" fill="#25D366"/>
<path fill-rule="evenodd" clip-rule="evenodd" d="M85.1901 27.6948C84.8539 27.5266 83.2012 26.7134 82.8931 26.6011C82.585 26.489 82.3609 26.433 82.1368 26.7694C81.9127 27.1058 81.2684 27.8631 81.0723 28.0875C80.8763 28.3118 80.6802 28.34 80.344 28.1716C80.0079 28.0034 78.9247 27.6484 77.6407 26.5031C76.6414 25.6117 75.9667 24.5109 75.7707 24.1744C75.5746 23.8378 75.7497 23.6559 75.918 23.4883C76.0693 23.3377 76.2542 23.0957 76.4223 22.8994C76.5904 22.7031 76.6464 22.5628 76.7584 22.3386C76.8705 22.1142 76.8145 21.9179 76.7304 21.7497C76.6464 21.5815 75.9741 19.9268 75.694 19.2536C75.4211 18.5982 75.144 18.687 74.9376 18.6766C74.7418 18.6668 74.5174 18.6648 74.2934 18.6648C74.0693 18.6648 73.7051 18.7489 73.3969 19.0854C73.0888 19.4219 72.2204 20.2352 72.2204 21.8898C72.2204 23.5445 73.4249 25.1429 73.593 25.3672C73.7611 25.5916 75.9634 28.987 79.3356 30.4431C80.1376 30.7895 80.7638 30.9963 81.252 31.1512C82.0572 31.4071 82.79 31.371 83.3693 31.2844C84.0151 31.1879 85.3581 30.4713 85.6383 29.6861C85.9184 28.9007 85.9184 28.2276 85.8343 28.0875C85.7503 27.9472 85.5262 27.8631 85.1901 27.6948ZM79.0565 36.0696H79.052C77.0454 36.0688 75.0774 35.5297 73.3606 34.511L72.9523 34.2686L68.7201 35.3788L69.8497 31.2524L69.5839 30.8293C68.4645 29.049 67.8733 26.9913 67.8742 24.8784C67.8767 18.7132 72.893 13.6972 79.0609 13.6972C82.0477 13.6983 84.8552 14.8629 86.9665 16.9766C89.0777 19.0902 90.2397 21.8996 90.2385 24.8875C90.236 31.0532 85.2198 36.0696 79.0565 36.0696ZM88.5733 15.3705C86.0333 12.8275 82.6554 11.4265 79.0564 11.425C71.6409 11.425 65.6057 17.4599 65.6027 24.8776C65.6017 27.2488 66.2212 29.5632 67.3985 31.6035L65.4899 38.575L72.6218 36.7042C74.5869 37.776 76.7993 38.341 79.051 38.3417H79.0565H79.0566C86.4712 38.3417 92.507 32.3062 92.51 24.8884C92.5114 21.2936 91.1133 17.9135 88.5733 15.3705Z" fill="white"/>
<path d="M109.196 19.77V31.5H108.091V19.77H109.196ZM115.299 24.734V25.703H109.06V24.734H115.299ZM116.217 19.77V31.5H115.112V19.77H116.217ZM123.664 19.77C123.766 19.77 123.857 19.7983 123.936 19.855C124.027 19.9117 124.083 19.991 124.106 20.093L128.033 31.5H126.877L123.579 21.606C123.534 21.4473 123.483 21.2887 123.426 21.13C123.369 20.96 123.318 20.8013 123.273 20.654H122.78C122.735 20.8013 122.684 20.96 122.627 21.13C122.582 21.2887 122.531 21.4473 122.474 21.606L119.176 31.5H118.02L121.947 20.093C121.981 19.991 122.038 19.9117 122.117 19.855C122.196 19.7983 122.287 19.77 122.389 19.77H123.664ZM125.993 26.638V27.607H120.043V26.638H125.993ZM130.944 19.77V31.5H129.839V19.77H130.944ZM137.081 19.77V20.688H130.808V19.77H137.081ZM137.999 19.77V31.5H136.894V19.77H137.999ZM149.678 19.77V31.5H148.59V22.473C148.59 22.2577 148.59 22.0423 148.59 21.827C148.602 21.6117 148.619 21.402 148.641 21.198H148.59C148.5 21.3907 148.398 21.589 148.284 21.793C148.182 21.997 148.08 22.1897 147.978 22.371L142.283 31.5H141.161V19.77H142.232V28.729C142.232 28.9557 142.227 29.1823 142.215 29.409C142.204 29.6243 142.193 29.8397 142.181 30.055H142.232C142.323 29.8623 142.431 29.6583 142.555 29.443C142.68 29.2277 142.793 29.0237 142.895 28.831L148.522 19.77H149.678ZM156.879 19.566C157.355 19.566 157.763 19.5773 158.103 19.6C158.454 19.6227 158.777 19.6567 159.072 19.702C159.366 19.7473 159.672 19.8097 159.99 19.889L159.854 20.739C159.514 20.6937 159.202 20.6597 158.919 20.637C158.647 20.6143 158.346 20.5973 158.018 20.586C157.7 20.5633 157.321 20.552 156.879 20.552C156.04 20.552 155.377 20.7163 154.89 21.045C154.402 21.3623 154.057 21.8893 153.853 22.626C153.649 23.3627 153.547 24.3657 153.547 25.635C153.547 26.9043 153.649 27.9073 153.853 28.644C154.057 29.3807 154.402 29.9133 154.89 30.242C155.377 30.5593 156.04 30.718 156.879 30.718C157.581 30.718 158.176 30.701 158.664 30.667C159.151 30.633 159.627 30.582 160.092 30.514L160.228 31.347C159.752 31.4717 159.259 31.5623 158.749 31.619C158.25 31.6757 157.627 31.704 156.879 31.704C155.779 31.704 154.895 31.5113 154.227 31.126C153.569 30.7293 153.093 30.089 152.799 29.205C152.504 28.321 152.357 27.131 152.357 25.635C152.357 24.139 152.504 22.949 152.799 22.065C153.093 21.181 153.569 20.5463 154.227 20.161C154.895 19.7643 155.779 19.566 156.879 19.566ZM166.745 19.77C166.847 19.77 166.938 19.7983 167.017 19.855C167.108 19.9117 167.165 19.991 167.187 20.093L171.114 31.5H169.958L166.66 21.606C166.615 21.4473 166.564 21.2887 166.507 21.13C166.451 20.96 166.4 20.8013 166.354 20.654H165.861C165.816 20.8013 165.765 20.96 165.708 21.13C165.663 21.2887 165.612 21.4473 165.555 21.606L162.257 31.5H161.101L165.028 20.093C165.062 19.991 165.119 19.9117 165.198 19.855C165.278 19.7983 165.368 19.77 165.47 19.77H166.745ZM169.074 26.638V27.607H163.124V26.638H169.074ZM175.75 19.77V31.5H174.628V19.77H175.75ZM179.66 19.77V20.756H170.735V19.77H179.66ZM185.545 24.666C186.497 24.666 187.24 24.7793 187.772 25.006C188.316 25.2327 188.702 25.601 188.928 26.111C189.166 26.621 189.285 27.3067 189.285 28.168C189.285 29.0747 189.161 29.783 188.911 30.293C188.673 30.7917 188.294 31.143 187.772 31.347C187.251 31.5397 186.56 31.636 185.698 31.636C185.075 31.636 184.537 31.6303 184.083 31.619C183.641 31.619 183.233 31.6077 182.859 31.585C182.497 31.5623 182.106 31.534 181.686 31.5L181.907 30.599C182.168 30.6103 182.616 30.6217 183.25 30.633C183.885 30.6443 184.65 30.65 185.545 30.65C186.214 30.65 186.735 30.5877 187.109 30.463C187.483 30.327 187.75 30.0777 187.908 29.715C188.078 29.3523 188.163 28.8367 188.163 28.168C188.163 27.5447 188.09 27.046 187.942 26.672C187.795 26.298 187.534 26.0317 187.16 25.873C186.786 25.703 186.248 25.618 185.545 25.618H181.89V24.666H185.545ZM182.774 19.77V31.5H181.669V19.77H182.774ZM199.169 19.634C200.121 19.634 200.875 19.7247 201.43 19.906C201.997 20.076 202.405 20.382 202.654 20.824C202.903 21.266 203.028 21.8893 203.028 22.694C203.028 23.5327 202.869 24.173 202.552 24.615C202.246 25.057 201.742 25.312 201.039 25.38V25.448C201.912 25.5273 202.518 25.8333 202.858 26.366C203.209 26.8987 203.385 27.6353 203.385 28.576C203.385 29.3807 203.26 30.004 203.011 30.446C202.773 30.888 202.382 31.1997 201.838 31.381C201.294 31.551 200.58 31.636 199.696 31.636C199.05 31.636 198.495 31.6303 198.03 31.619C197.577 31.619 197.157 31.6077 196.772 31.585C196.387 31.5623 195.979 31.534 195.548 31.5L195.786 30.616C196.024 30.6273 196.483 30.6387 197.163 30.65C197.843 30.6613 198.636 30.667 199.543 30.667C200.223 30.667 200.756 30.6103 201.141 30.497C201.538 30.3723 201.821 30.1513 201.991 29.834C202.161 29.5053 202.246 29.0293 202.246 28.406C202.246 27.7373 202.155 27.2217 201.974 26.859C201.804 26.4963 201.509 26.2413 201.09 26.094C200.682 25.9467 200.121 25.8673 199.407 25.856H195.769V24.989H199.407C200.03 24.9777 200.523 24.9153 200.886 24.802C201.26 24.6773 201.526 24.4563 201.685 24.139C201.855 23.8217 201.94 23.374 201.94 22.796C201.94 22.1953 201.849 21.7363 201.668 21.419C201.498 21.1017 201.203 20.8863 200.784 20.773C200.376 20.6597 199.821 20.603 199.118 20.603C198.585 20.603 198.104 20.603 197.673 20.603C197.242 20.603 196.868 20.6087 196.551 20.62C196.234 20.62 195.979 20.6313 195.786 20.654L195.548 19.77C195.922 19.7247 196.279 19.6963 196.619 19.685C196.959 19.6623 197.327 19.651 197.724 19.651C198.132 19.6397 198.614 19.634 199.169 19.634ZM196.636 19.77V31.5H195.548V19.77H196.636ZM223.482 19.77L220.847 31.16C220.813 31.2507 220.756 31.33 220.677 31.398C220.598 31.466 220.496 31.5 220.371 31.5H219.028C218.915 31.5 218.813 31.466 218.722 31.398C218.643 31.33 218.592 31.245 218.569 31.143L216.495 21.946C216.45 21.7193 216.399 21.4983 216.342 21.283C216.297 21.0563 216.251 20.8353 216.206 20.62H215.815C215.77 20.8353 215.724 21.0563 215.679 21.283C215.634 21.5097 215.588 21.7307 215.543 21.946L213.469 31.143C213.446 31.245 213.39 31.33 213.299 31.398C213.22 31.466 213.123 31.5 213.01 31.5H211.65C211.537 31.5 211.435 31.466 211.344 31.398C211.265 31.33 211.214 31.2507 211.191 31.16L208.556 19.77H209.729L211.871 29.29C211.928 29.494 211.973 29.7093 212.007 29.936C212.052 30.1627 212.098 30.395 212.143 30.633H212.568C212.613 30.395 212.659 30.1683 212.704 29.953C212.749 29.7263 212.795 29.5053 212.84 29.29L214.914 20.161C214.937 20.0363 214.988 19.94 215.067 19.872C215.158 19.804 215.26 19.77 215.373 19.77H216.665C216.778 19.77 216.875 19.804 216.954 19.872C217.033 19.94 217.084 20.0363 217.107 20.161L219.198 29.29C219.255 29.5167 219.3 29.7433 219.334 29.97C219.379 30.1853 219.419 30.4063 219.453 30.633H219.895C219.94 30.4063 219.98 30.1853 220.014 29.97C220.059 29.7433 220.105 29.5223 220.15 29.307L222.309 19.77H223.482ZM226.719 19.77V31.5H225.614V19.77H226.719ZM232.822 24.734V25.703H226.583V24.734H232.822ZM233.74 19.77V31.5H232.635V19.77H233.74ZM241.187 19.77C241.289 19.77 241.379 19.7983 241.459 19.855C241.549 19.9117 241.606 19.991 241.629 20.093L245.556 31.5H244.4L241.102 21.606C241.056 21.4473 241.005 21.2887 240.949 21.13C240.892 20.96 240.841 20.8013 240.796 20.654H240.303C240.257 20.8013 240.206 20.96 240.15 21.13C240.104 21.2887 240.053 21.4473 239.997 21.606L236.699 31.5H235.543L239.47 20.093C239.504 19.991 239.56 19.9117 239.64 19.855C239.719 19.7983 239.81 19.77 239.912 19.77H241.187ZM243.516 26.638V27.607H237.566V26.638H243.516ZM250.191 19.77V31.5H249.069V19.77H250.191ZM254.101 19.77V20.756H245.176V19.77H254.101ZM259.239 19.566C259.794 19.5773 260.355 19.6057 260.922 19.651C261.488 19.6963 262.055 19.77 262.622 19.872L262.537 20.688C262.038 20.654 261.505 20.6257 260.939 20.603C260.372 20.5803 259.822 20.569 259.29 20.569C258.825 20.569 258.423 20.586 258.083 20.62C257.754 20.654 257.482 20.7333 257.267 20.858C257.051 20.9827 256.893 21.1867 256.791 21.47C256.7 21.7533 256.655 22.15 256.655 22.66C256.655 23.3853 256.779 23.901 257.029 24.207C257.278 24.5017 257.692 24.7057 258.27 24.819L260.735 25.329C261.619 25.5103 262.231 25.856 262.571 26.366C262.922 26.876 263.098 27.6013 263.098 28.542C263.098 29.2333 263.018 29.7887 262.86 30.208C262.701 30.616 262.463 30.9277 262.146 31.143C261.84 31.3583 261.449 31.5057 260.973 31.585C260.497 31.6643 259.936 31.704 259.29 31.704C258.882 31.704 258.377 31.687 257.777 31.653C257.176 31.619 256.49 31.5397 255.72 31.415L255.805 30.599C256.383 30.6217 256.864 30.6443 257.25 30.667C257.646 30.6783 258.003 30.6897 258.321 30.701C258.638 30.701 258.972 30.701 259.324 30.701C259.981 30.6897 260.502 30.633 260.888 30.531C261.273 30.429 261.545 30.225 261.704 29.919C261.874 29.613 261.959 29.1483 261.959 28.525C261.959 28.015 261.902 27.6183 261.789 27.335C261.687 27.0403 261.511 26.8193 261.262 26.672C261.024 26.5133 260.712 26.4 260.327 26.332L257.828 25.805C256.989 25.635 256.394 25.295 256.043 24.785C255.703 24.2637 255.533 23.5497 255.533 22.643C255.533 21.9517 255.606 21.402 255.754 20.994C255.912 20.5747 256.139 20.263 256.434 20.059C256.74 19.855 257.125 19.7247 257.59 19.668C258.054 19.6 258.604 19.566 259.239 19.566ZM269.891 19.77C269.993 19.77 270.083 19.7983 270.163 19.855C270.253 19.9117 270.31 19.991 270.333 20.093L274.26 31.5H273.104L269.806 21.606C269.76 21.4473 269.709 21.2887 269.653 21.13C269.596 20.96 269.545 20.8013 269.5 20.654H269.007C268.961 20.8013 268.91 20.96 268.854 21.13C268.808 21.2887 268.757 21.4473 268.701 21.606L265.403 31.5H264.247L268.174 20.093C268.208 19.991 268.264 19.9117 268.344 19.855C268.423 19.7983 268.514 19.77 268.616 19.77H269.891ZM272.22 26.638V27.607H266.27V26.638H272.22ZM279.993 19.617C280.888 19.617 281.602 19.7247 282.135 19.94C282.667 20.1553 283.047 20.5237 283.274 21.045C283.512 21.555 283.631 22.2803 283.631 23.221C283.631 24.1617 283.517 24.8927 283.291 25.414C283.064 25.9353 282.69 26.298 282.169 26.502C281.659 26.706 280.967 26.808 280.095 26.808C279.63 26.808 279.188 26.8023 278.769 26.791C278.349 26.7683 277.964 26.7457 277.613 26.723C277.273 26.689 276.978 26.655 276.729 26.621C276.491 26.587 276.326 26.5587 276.236 26.536L276.287 25.839C276.865 25.839 277.471 25.839 278.106 25.839C278.74 25.839 279.364 25.839 279.976 25.839C280.599 25.8277 281.092 25.7483 281.455 25.601C281.829 25.4537 282.095 25.193 282.254 24.819C282.412 24.4337 282.492 23.901 282.492 23.221C282.492 22.5183 282.412 21.98 282.254 21.606C282.095 21.232 281.829 20.9713 281.455 20.824C281.092 20.6767 280.599 20.603 279.976 20.603C279.069 20.603 278.287 20.6087 277.63 20.62C276.972 20.62 276.53 20.6313 276.304 20.654L276.066 19.77C276.485 19.7247 276.876 19.6907 277.239 19.668C277.601 19.6453 277.998 19.634 278.429 19.634C278.859 19.6227 279.381 19.617 279.993 19.617ZM277.171 19.77V31.5H276.066V19.77H277.171ZM289.97 19.617C290.866 19.617 291.58 19.7247 292.112 19.94C292.645 20.1553 293.025 20.5237 293.251 21.045C293.489 21.555 293.608 22.2803 293.608 23.221C293.608 24.1617 293.495 24.8927 293.268 25.414C293.042 25.9353 292.668 26.298 292.146 26.502C291.636 26.706 290.945 26.808 290.072 26.808C289.608 26.808 289.166 26.8023 288.746 26.791C288.327 26.7683 287.942 26.7457 287.59 26.723C287.25 26.689 286.956 26.655 286.706 26.621C286.468 26.587 286.304 26.5587 286.213 26.536L286.264 25.839C286.842 25.839 287.449 25.839 288.083 25.839C288.718 25.839 289.341 25.839 289.953 25.839C290.577 25.8277 291.07 25.7483 291.432 25.601C291.806 25.4537 292.073 25.193 292.231 24.819C292.39 24.4337 292.469 23.901 292.469 23.221C292.469 22.5183 292.39 21.98 292.231 21.606C292.073 21.232 291.806 20.9713 291.432 20.824C291.07 20.6767 290.577 20.603 289.953 20.603C289.047 20.603 288.265 20.6087 287.607 20.62C286.95 20.62 286.508 20.6313 286.281 20.654L286.043 19.77C286.463 19.7247 286.854 19.6907 287.216 19.668C287.579 19.6453 287.976 19.634 288.406 19.634C288.837 19.6227 289.358 19.617 289.97 19.617ZM287.148 19.77V31.5H286.043V19.77H287.148Z" fill="white"/>
</svg>
