<svg width="360" height="50" viewBox="0 0 360 50" fill="none" xmlns="http://www.w3.org/2000/svg">
<path d="M0 25C0 11.1929 11.1929 0 25 0H335C348.807 0 360 11.1929 360 25C360 38.8071 348.807 50 335 50H25C11.1929 50 0 38.8071 0 25Z" fill="#2AABEE"/>
<path fill-rule="evenodd" clip-rule="evenodd" d="M68.7914 23.4361C76.0794 20.2608 80.9392 18.1675 83.3708 17.1561C90.3136 14.2684 91.7563 13.7667 92.6966 13.7502C92.9034 13.7465 93.3658 13.7978 93.6653 14.0408C93.9182 14.2461 93.9878 14.5233 94.0211 14.7179C94.0544 14.9124 94.0959 15.3557 94.0629 15.702C93.6867 19.6551 92.0587 29.2482 91.2305 33.6757C90.8801 35.5492 90.1901 36.1773 89.522 36.2388C88.0702 36.3724 86.9678 35.2794 85.5617 34.3576C83.3613 32.9153 82.1183 32.0174 79.9825 30.61C77.5142 28.9834 79.1143 28.0894 80.521 26.6284C80.8891 26.2461 87.2857 20.4278 87.4095 19.9C87.425 19.834 87.4394 19.5879 87.2932 19.458C87.147 19.3281 86.9313 19.3725 86.7756 19.4079C86.5549 19.4579 83.0399 21.7813 76.2305 26.3778C75.2327 27.0629 74.329 27.3967 73.5193 27.3792C72.6267 27.3599 70.9096 26.8745 69.6332 26.4596C68.0675 25.9507 66.8232 25.6816 66.9316 24.8173C66.988 24.3671 67.6079 23.9067 68.7914 23.4361Z" fill="white"/>
<path d="M110.761 19.77V24.734H116.677V19.77H117.782V31.5H116.677V25.703H110.761V31.5H109.656V19.77H110.761ZM125.229 19.77C125.467 19.77 125.614 19.8777 125.671 20.093L129.598 31.5H128.442L127.15 27.607H122.05L120.741 31.5H119.585L123.512 20.093C123.58 19.8777 123.727 19.77 123.954 19.77H125.229ZM124.039 21.606L122.373 26.638H126.827L125.144 21.606C125.087 21.4473 125.031 21.2887 124.974 21.13C124.929 20.96 124.883 20.8013 124.838 20.654H124.345C124.3 20.8013 124.249 20.96 124.192 21.13C124.147 21.2887 124.096 21.4473 124.039 21.606ZM139.564 19.77V31.5H138.459V20.688H132.509V31.5H131.404V19.77H139.564ZM151.243 19.77V31.5H150.155V22.473C150.155 22.2577 150.155 22.0423 150.155 21.827C150.167 21.6117 150.184 21.402 150.206 21.198H150.155C150.065 21.3907 149.963 21.5947 149.849 21.81C149.747 22.014 149.645 22.201 149.543 22.371L143.848 31.5H142.726V19.77H143.797V28.729C143.797 28.9557 143.792 29.1823 143.78 29.409C143.78 29.6243 143.769 29.8397 143.746 30.055H143.797C143.899 29.8623 144.007 29.6583 144.12 29.443C144.234 29.2277 144.347 29.0237 144.46 28.831L150.087 19.77H151.243ZM158.444 19.566C159.158 19.566 159.736 19.5943 160.178 19.651C160.62 19.6963 161.079 19.7757 161.555 19.889L161.419 20.739C161.079 20.6937 160.767 20.6597 160.484 20.637C160.2 20.6143 159.9 20.5973 159.583 20.586C159.265 20.5633 158.886 20.552 158.444 20.552C157.605 20.552 156.942 20.7163 156.455 21.045C155.967 21.3623 155.622 21.8893 155.418 22.626C155.214 23.3627 155.112 24.3657 155.112 25.635C155.112 26.9043 155.214 27.9073 155.418 28.644C155.622 29.3807 155.967 29.9133 156.455 30.242C156.942 30.5593 157.605 30.718 158.444 30.718C159.146 30.718 159.741 30.701 160.229 30.667C160.716 30.633 161.192 30.582 161.657 30.514L161.793 31.347C161.317 31.4717 160.824 31.5623 160.314 31.619C159.815 31.6757 159.192 31.704 158.444 31.704C157.333 31.704 156.449 31.5113 155.792 31.126C155.134 30.7293 154.658 30.089 154.364 29.205C154.069 28.321 153.922 27.131 153.922 25.635C153.922 24.139 154.069 22.949 154.364 22.065C154.658 21.181 155.134 20.5463 155.792 20.161C156.449 19.7643 157.333 19.566 158.444 19.566ZM168.31 19.77C168.548 19.77 168.695 19.8777 168.752 20.093L172.679 31.5H171.523L170.231 27.607H165.131L163.822 31.5H162.666L166.593 20.093C166.661 19.8777 166.808 19.77 167.035 19.77H168.31ZM167.12 21.606L165.454 26.638H169.908L168.225 21.606C168.168 21.4473 168.112 21.2887 168.055 21.13C168.01 20.96 167.964 20.8013 167.919 20.654H167.426C167.381 20.8013 167.33 20.96 167.273 21.13C167.228 21.2887 167.177 21.4473 167.12 21.606ZM181.225 19.77V20.756H177.315V31.5H176.193V20.756H172.3V19.77H181.225ZM187.11 24.666C188.051 24.666 188.793 24.7793 189.337 25.006C189.881 25.2327 190.266 25.6067 190.493 26.128C190.731 26.638 190.85 27.318 190.85 28.168C190.85 29.0747 190.725 29.783 190.476 30.293C190.238 30.7917 189.858 31.143 189.337 31.347C188.816 31.5397 188.124 31.636 187.263 31.636C186.628 31.636 186.09 31.6303 185.648 31.619C185.206 31.619 184.798 31.6077 184.424 31.585C184.061 31.5623 183.67 31.534 183.251 31.5H183.234V19.77H184.339V24.666H187.11ZM187.11 25.618H184.339V30.633C185.019 30.6443 185.943 30.65 187.11 30.65C187.779 30.65 188.3 30.582 188.674 30.446C189.059 30.31 189.331 30.0663 189.49 29.715C189.649 29.3523 189.728 28.8367 189.728 28.168C189.728 27.5447 189.654 27.046 189.507 26.672C189.36 26.298 189.099 26.0317 188.725 25.873C188.351 25.703 187.813 25.618 187.11 25.618ZM200.734 19.634C201.675 19.634 202.428 19.7247 202.995 19.906C203.562 20.076 203.97 20.382 204.219 20.824C204.468 21.266 204.593 21.8893 204.593 22.694C204.593 23.5327 204.434 24.173 204.117 24.615C203.811 25.057 203.307 25.312 202.604 25.38V25.448C203.477 25.5273 204.083 25.8333 204.423 26.366C204.774 26.8987 204.95 27.6353 204.95 28.576C204.95 29.3807 204.825 30.004 204.576 30.446C204.338 30.888 203.947 31.1997 203.403 31.381C202.859 31.551 202.145 31.636 201.261 31.636C200.615 31.636 200.06 31.6303 199.595 31.619C199.142 31.619 198.717 31.6077 198.32 31.585C197.935 31.5623 197.532 31.534 197.113 31.5V19.77C197.487 19.7247 197.844 19.6963 198.184 19.685C198.524 19.6623 198.892 19.651 199.289 19.651C199.697 19.6397 200.179 19.634 200.734 19.634ZM200.683 20.603C200.173 20.603 199.708 20.603 199.289 20.603C198.881 20.603 198.518 20.603 198.201 20.603V24.989H200.972C201.595 24.989 202.088 24.9267 202.451 24.802C202.825 24.6773 203.091 24.462 203.25 24.156C203.42 23.8387 203.505 23.3853 203.505 22.796C203.505 22.1953 203.414 21.7363 203.233 21.419C203.052 21.1017 202.757 20.8863 202.349 20.773C201.941 20.6597 201.386 20.603 200.683 20.603ZM200.972 25.856H198.201V30.65C198.552 30.6613 198.977 30.667 199.476 30.667C199.975 30.667 200.519 30.667 201.108 30.667C201.777 30.667 202.309 30.6103 202.706 30.497C203.103 30.3723 203.386 30.1513 203.556 29.834C203.726 29.5053 203.811 29.0293 203.811 28.406C203.811 27.7373 203.72 27.2217 203.539 26.859C203.358 26.4963 203.057 26.2413 202.638 26.094C202.23 25.9467 201.675 25.8673 200.972 25.856ZM218.811 19.77V20.756H214.901V31.5H213.779V20.756H209.886V19.77H218.811ZM222.792 19.753C223.631 19.753 224.475 19.7587 225.325 19.77C226.175 19.7813 227.002 19.8097 227.807 19.855L227.756 20.722H222.979C222.208 20.722 221.823 21.1243 221.823 21.929V24.819H227.076V25.72H221.823V29.341C221.823 30.157 222.208 30.565 222.979 30.565H227.756L227.807 31.415C227.002 31.4603 226.175 31.4887 225.325 31.5C224.475 31.5113 223.631 31.517 222.792 31.517C222.169 31.517 221.664 31.3413 221.279 30.99C220.905 30.6387 220.718 30.1683 220.718 29.579V21.691C220.718 21.1017 220.905 20.6313 221.279 20.28C221.664 19.9287 222.169 19.753 222.792 19.753ZM231.337 19.77V29.341C231.337 30.1457 231.751 30.548 232.578 30.548H236.947L236.981 31.415C236.233 31.4603 235.468 31.4887 234.686 31.5C233.915 31.5113 233.15 31.517 232.391 31.517C231.654 31.517 231.11 31.3243 230.759 30.939C230.408 30.5537 230.232 30.0663 230.232 29.477V19.77H231.337ZM240.938 19.753C241.776 19.753 242.621 19.7587 243.471 19.77C244.321 19.7813 245.148 19.8097 245.953 19.855L245.902 20.722H241.125C240.354 20.722 239.969 21.1243 239.969 21.929V24.819H245.222V25.72H239.969V29.341C239.969 30.157 240.354 30.565 241.125 30.565H245.902L245.953 31.415C245.148 31.4603 244.321 31.4887 243.471 31.5C242.621 31.5113 241.776 31.517 240.938 31.517C240.314 31.517 239.81 31.3413 239.425 30.99C239.051 30.6387 238.864 30.1683 238.864 29.579V21.691C238.864 21.1017 239.051 20.6313 239.425 20.28C239.81 19.9287 240.314 19.753 240.938 19.753ZM256.149 24.717V31.5H255.35L255.197 30.174C254.823 30.5593 254.336 30.9163 253.735 31.245C253.134 31.5623 252.443 31.721 251.661 31.721C250.312 31.721 249.343 31.2337 248.754 30.259C248.176 29.273 247.887 27.726 247.887 25.618C247.887 24.088 248.034 22.881 248.329 21.997C248.635 21.113 249.134 20.484 249.825 20.11C250.516 19.736 251.44 19.549 252.596 19.549C253.253 19.549 253.837 19.5773 254.347 19.634C254.868 19.6793 255.384 19.7643 255.894 19.889L255.758 20.722C255.225 20.6653 254.71 20.6257 254.211 20.603C253.712 20.569 253.197 20.552 252.664 20.552C251.984 20.552 251.412 20.6313 250.947 20.79C250.494 20.9373 250.125 21.198 249.842 21.572C249.57 21.946 249.372 22.4673 249.247 23.136C249.122 23.7933 249.06 24.6433 249.06 25.686C249.06 26.8987 249.151 27.8733 249.332 28.61C249.525 29.3467 249.831 29.885 250.25 30.225C250.669 30.565 251.23 30.735 251.933 30.735C252.602 30.735 253.18 30.599 253.667 30.327C254.166 30.0437 254.63 29.732 255.061 29.392V24.717H256.149ZM262.914 19.617C263.787 19.617 264.49 19.719 265.022 19.923C265.555 20.1157 265.94 20.4557 266.178 20.943C266.428 21.419 266.552 22.099 266.552 22.983C266.552 23.969 266.382 24.7 266.042 25.176C265.714 25.6407 265.164 25.9297 264.393 26.043V26.111C264.688 26.2017 264.96 26.3887 265.209 26.672C265.459 26.9553 265.651 27.3237 265.787 27.777L266.977 31.5H265.787L264.665 27.811C264.495 27.3237 264.274 26.978 264.002 26.774C263.73 26.57 263.385 26.468 262.965 26.468C262.342 26.468 261.787 26.468 261.299 26.468C260.823 26.4567 260.415 26.4453 260.075 26.434V31.5H258.97V19.77C259.378 19.7247 259.764 19.6907 260.126 19.668C260.5 19.6453 260.903 19.634 261.333 19.634C261.775 19.6227 262.302 19.617 262.914 19.617ZM262.88 20.603C262.314 20.603 261.787 20.603 261.299 20.603C260.823 20.603 260.415 20.6087 260.075 20.62V25.499H262.88C263.515 25.4877 264.014 25.414 264.376 25.278C264.75 25.1307 265.017 24.8813 265.175 24.53C265.334 24.1673 265.413 23.6687 265.413 23.034C265.413 22.388 265.334 21.8893 265.175 21.538C265.017 21.1867 264.75 20.943 264.376 20.807C264.014 20.671 263.515 20.603 262.88 20.603ZM273.697 19.77C273.935 19.77 274.082 19.8777 274.139 20.093L278.066 31.5H276.91L275.618 27.607H270.518L269.209 31.5H268.053L271.98 20.093C272.048 19.8777 272.195 19.77 272.422 19.77H273.697ZM272.507 21.606L270.841 26.638H275.295L273.612 21.606C273.555 21.4473 273.499 21.2887 273.442 21.13C273.397 20.96 273.351 20.8013 273.306 20.654H272.813C272.768 20.8013 272.717 20.96 272.66 21.13C272.615 21.2887 272.564 21.4473 272.507 21.606ZM290.752 19.77C291.069 19.77 291.228 19.9343 291.228 20.263L291.738 31.5H290.616L290.157 20.705H289.783L286.723 29.902C286.655 30.1513 286.49 30.276 286.23 30.276H285.108C284.847 30.276 284.677 30.1513 284.598 29.902L281.555 20.705H281.181L280.739 31.5H279.617L280.093 20.263C280.104 19.9343 280.274 19.77 280.603 19.77H281.946C282.195 19.77 282.354 19.9003 282.422 20.161L284.989 27.811C285.091 28.083 285.176 28.3493 285.244 28.61C285.323 28.8707 285.408 29.137 285.499 29.409H285.856C285.935 29.137 286.014 28.8707 286.094 28.61C286.173 28.338 286.258 28.0603 286.349 27.777L288.916 20.161C288.984 19.9003 289.148 19.77 289.409 19.77H290.752Z" fill="white"/>
</svg>
