<svg width="360" height="50" viewBox="0 0 360 50" fill="none" xmlns="http://www.w3.org/2000/svg">
<path d="M0 25C0 11.1929 11.1929 0 25 0H335C348.807 0 360 11.1929 360 25C360 38.8071 348.807 50 335 50H25C11.1929 50 0 38.8071 0 25Z" fill="#7360F2"/>
<g clip-path="url(#clip0)">
<path d="M109.589 14.0737C108.906 13.4512 106.147 11.472 99.9992 11.4451C99.9992 11.4451 92.7498 11.0133 89.2159 14.2154C87.2487 16.1591 86.5567 19.0031 86.4837 22.5291C86.4107 26.0551 86.3162 32.6631 92.7643 34.4548H92.7705L92.7663 37.1888C92.7663 37.1888 92.7251 38.2957 93.4629 38.5214C94.3554 38.7952 94.8791 37.9539 95.7312 37.047C96.1988 36.5492 96.8447 35.8179 97.3313 35.259C101.741 35.6256 105.133 34.7876 105.518 34.6638C106.409 34.3786 111.447 33.7406 112.266 27.1335C113.112 20.3231 111.857 16.0153 109.589 14.0737ZM110.337 26.645C109.645 32.162 105.559 32.5087 104.805 32.7474C104.485 32.8492 101.506 33.5813 97.7598 33.3397C97.7598 33.3397 94.9686 36.6661 94.0968 37.531C93.9607 37.6663 93.8007 37.7209 93.6939 37.694C93.5437 37.6577 93.5025 37.4821 93.5041 37.2255C93.5066 36.8588 93.5281 32.6822 93.5281 32.6822C93.5281 32.6822 93.5248 32.6822 93.5281 32.6822C88.0735 31.1863 88.3915 25.5622 88.4533 22.6171C88.5152 19.6721 89.0753 17.2595 90.7389 15.6368C93.7281 12.9623 99.8858 13.3619 99.8858 13.3619C105.086 13.3843 107.578 14.9312 108.155 15.4494C110.074 17.0721 111.051 20.955 110.337 26.6434V26.645Z" fill="white"/>
<path d="M102.53 22.3745C102.463 21.0277 101.77 20.3203 100.452 20.2524" stroke="white" stroke-width="0.910763" stroke-linecap="round" stroke-linejoin="round"/>
<path d="M104.314 22.9653C104.341 21.7105 103.965 20.6621 103.185 19.8202C102.402 18.9752 101.317 18.51 99.925 18.4094" stroke="white" stroke-width="0.910763" stroke-linecap="round" stroke-linejoin="round"/>
<path d="M106.14 23.6709C106.123 21.4935 105.465 19.7786 104.164 18.5263C102.864 17.274 101.246 16.6411 99.3122 16.6278" stroke="white" stroke-width="0.910763" stroke-linecap="round" stroke-linejoin="round"/>
<path d="M100.521 26.9744C100.521 26.9744 101.01 27.0152 101.273 26.6949L101.786 26.0574C102.034 25.7412 102.631 25.5396 103.216 25.8614C103.654 26.1083 104.079 26.3767 104.49 26.6656C104.878 26.9475 105.673 27.6026 105.676 27.6026C106.054 27.9184 106.142 28.382 105.884 28.8708C105.884 28.8737 105.882 28.8786 105.882 28.881C105.598 29.3672 105.238 29.8056 104.814 30.1798C104.809 30.1822 104.809 30.1847 104.805 30.1871C104.437 30.4908 104.075 30.6634 103.72 30.7049C103.668 30.714 103.615 30.7172 103.562 30.7147C103.406 30.7162 103.25 30.6925 103.101 30.6446L103.089 30.6279C102.543 30.4756 101.63 30.0942 100.109 29.2656C99.229 28.7917 98.3913 28.2451 97.6048 27.6315C97.2106 27.3242 96.8345 26.9947 96.4785 26.6448L96.4406 26.6074L96.4026 26.5699L96.3647 26.5324C96.3519 26.5202 96.3395 26.5075 96.3267 26.4949C95.9725 26.1432 95.639 25.7718 95.3279 25.3823C94.7069 24.6054 94.1535 23.7781 93.6737 22.909C92.8348 21.4066 92.4488 20.5054 92.2946 19.9644L92.2777 19.953C92.2293 19.8059 92.2055 19.6521 92.2071 19.4975C92.2043 19.4452 92.2074 19.3927 92.2166 19.3411C92.2609 18.991 92.4359 18.6337 92.7416 18.2692C92.7441 18.2647 92.7466 18.2647 92.7491 18.2598C93.1278 17.8416 93.5716 17.4857 94.0638 17.2055C94.0663 17.2055 94.0712 17.2031 94.0741 17.2031C94.569 16.9484 95.0384 17.0348 95.3576 17.4068C95.36 17.4092 96.022 18.1942 96.3061 18.5776C96.5986 18.9841 96.8703 19.4048 97.1202 19.8381C97.446 20.4154 97.2419 21.0065 96.9218 21.2501L96.2764 21.7569C95.9506 22.0168 95.9935 22.4996 95.9935 22.4996C95.9935 22.4996 96.9495 26.0737 100.521 26.9744Z" fill="white"/>
</g>
<path d="M129.218 19.77V24.734H135.134V19.77H136.239V31.5H135.134V25.703H129.218V31.5H128.113V19.77H129.218ZM143.686 19.77C143.924 19.77 144.071 19.8777 144.128 20.093L148.055 31.5H146.899L145.607 27.607H140.507L139.198 31.5H138.042L141.969 20.093C142.037 19.8777 142.184 19.77 142.411 19.77H143.686ZM142.496 21.606L140.83 26.638H145.284L143.601 21.606C143.544 21.4473 143.488 21.2887 143.431 21.13C143.386 20.96 143.34 20.8013 143.295 20.654H142.802C142.757 20.8013 142.706 20.96 142.649 21.13C142.604 21.2887 142.553 21.4473 142.496 21.606ZM158.021 19.77V31.5H156.916V20.688H150.966V31.5H149.861V19.77H158.021ZM169.7 19.77V31.5H168.612V22.473C168.612 22.2577 168.612 22.0423 168.612 21.827C168.624 21.6117 168.641 21.402 168.663 21.198H168.612C168.522 21.3907 168.42 21.5947 168.306 21.81C168.204 22.014 168.102 22.201 168 22.371L162.305 31.5H161.183V19.77H162.254V28.729C162.254 28.9557 162.249 29.1823 162.237 29.409C162.237 29.6243 162.226 29.8397 162.203 30.055H162.254C162.356 29.8623 162.464 29.6583 162.577 29.443C162.691 29.2277 162.804 29.0237 162.917 28.831L168.544 19.77H169.7ZM176.901 19.566C177.615 19.566 178.193 19.5943 178.635 19.651C179.077 19.6963 179.536 19.7757 180.012 19.889L179.876 20.739C179.536 20.6937 179.224 20.6597 178.941 20.637C178.657 20.6143 178.357 20.5973 178.04 20.586C177.722 20.5633 177.343 20.552 176.901 20.552C176.062 20.552 175.399 20.7163 174.912 21.045C174.424 21.3623 174.079 21.8893 173.875 22.626C173.671 23.3627 173.569 24.3657 173.569 25.635C173.569 26.9043 173.671 27.9073 173.875 28.644C174.079 29.3807 174.424 29.9133 174.912 30.242C175.399 30.5593 176.062 30.718 176.901 30.718C177.603 30.718 178.198 30.701 178.686 30.667C179.173 30.633 179.649 30.582 180.114 30.514L180.25 31.347C179.774 31.4717 179.281 31.5623 178.771 31.619C178.272 31.6757 177.649 31.704 176.901 31.704C175.79 31.704 174.906 31.5113 174.249 31.126C173.591 30.7293 173.115 30.089 172.821 29.205C172.526 28.321 172.379 27.131 172.379 25.635C172.379 24.139 172.526 22.949 172.821 22.065C173.115 21.181 173.591 20.5463 174.249 20.161C174.906 19.7643 175.79 19.566 176.901 19.566ZM186.767 19.77C187.005 19.77 187.152 19.8777 187.209 20.093L191.136 31.5H189.98L188.688 27.607H183.588L182.279 31.5H181.123L185.05 20.093C185.118 19.8777 185.265 19.77 185.492 19.77H186.767ZM185.577 21.606L183.911 26.638H188.365L186.682 21.606C186.625 21.4473 186.569 21.2887 186.512 21.13C186.467 20.96 186.421 20.8013 186.376 20.654H185.883C185.838 20.8013 185.787 20.96 185.73 21.13C185.685 21.2887 185.634 21.4473 185.577 21.606ZM199.682 19.77V20.756H195.772V31.5H194.65V20.756H190.757V19.77H199.682ZM205.567 24.666C206.508 24.666 207.25 24.7793 207.794 25.006C208.338 25.2327 208.723 25.6067 208.95 26.128C209.188 26.638 209.307 27.318 209.307 28.168C209.307 29.0747 209.182 29.783 208.933 30.293C208.695 30.7917 208.315 31.143 207.794 31.347C207.273 31.5397 206.581 31.636 205.72 31.636C205.085 31.636 204.547 31.6303 204.105 31.619C203.663 31.619 203.255 31.6077 202.881 31.585C202.518 31.5623 202.127 31.534 201.708 31.5H201.691V19.77H202.796V24.666H205.567ZM205.567 25.618H202.796V30.633C203.476 30.6443 204.4 30.65 205.567 30.65C206.236 30.65 206.757 30.582 207.131 30.446C207.516 30.31 207.788 30.0663 207.947 29.715C208.106 29.3523 208.185 28.8367 208.185 28.168C208.185 27.5447 208.111 27.046 207.964 26.672C207.817 26.298 207.556 26.0317 207.182 25.873C206.808 25.703 206.27 25.618 205.567 25.618ZM219.191 19.634C220.132 19.634 220.885 19.7247 221.452 19.906C222.019 20.076 222.427 20.382 222.676 20.824C222.925 21.266 223.05 21.8893 223.05 22.694C223.05 23.5327 222.891 24.173 222.574 24.615C222.268 25.057 221.764 25.312 221.061 25.38V25.448C221.934 25.5273 222.54 25.8333 222.88 26.366C223.231 26.8987 223.407 27.6353 223.407 28.576C223.407 29.3807 223.282 30.004 223.033 30.446C222.795 30.888 222.404 31.1997 221.86 31.381C221.316 31.551 220.602 31.636 219.718 31.636C219.072 31.636 218.517 31.6303 218.052 31.619C217.599 31.619 217.174 31.6077 216.777 31.585C216.392 31.5623 215.989 31.534 215.57 31.5V19.77C215.944 19.7247 216.301 19.6963 216.641 19.685C216.981 19.6623 217.349 19.651 217.746 19.651C218.154 19.6397 218.636 19.634 219.191 19.634ZM219.14 20.603C218.63 20.603 218.165 20.603 217.746 20.603C217.338 20.603 216.975 20.603 216.658 20.603V24.989H219.429C220.052 24.989 220.545 24.9267 220.908 24.802C221.282 24.6773 221.548 24.462 221.707 24.156C221.877 23.8387 221.962 23.3853 221.962 22.796C221.962 22.1953 221.871 21.7363 221.69 21.419C221.509 21.1017 221.214 20.8863 220.806 20.773C220.398 20.6597 219.843 20.603 219.14 20.603ZM219.429 25.856H216.658V30.65C217.009 30.6613 217.434 30.667 217.933 30.667C218.432 30.667 218.976 30.667 219.565 30.667C220.234 30.667 220.766 30.6103 221.163 30.497C221.56 30.3723 221.843 30.1513 222.013 29.834C222.183 29.5053 222.268 29.0293 222.268 28.406C222.268 27.7373 222.177 27.2217 221.996 26.859C221.815 26.4963 221.514 26.2413 221.095 26.094C220.687 25.9467 220.132 25.8673 219.429 25.856ZM237.812 19.77L234.089 31.177C234.01 31.3923 233.862 31.5 233.647 31.5H232.406C232.179 31.5 232.032 31.3923 231.964 31.177L228.241 19.77H229.397L232.423 29.358C232.491 29.562 232.553 29.7717 232.61 29.987C232.678 30.2023 232.74 30.412 232.797 30.616H233.256C233.313 30.412 233.369 30.2023 233.426 29.987C233.494 29.7603 233.568 29.545 233.647 29.341L236.639 19.77H237.812ZM240.83 19.77V31.5H239.725V19.77H240.83ZM247.613 19.634C248.554 19.634 249.307 19.7247 249.874 19.906C250.441 20.076 250.849 20.382 251.098 20.824C251.347 21.266 251.472 21.8893 251.472 22.694C251.472 23.5327 251.313 24.173 250.996 24.615C250.69 25.057 250.186 25.312 249.483 25.38V25.448C250.356 25.5273 250.962 25.8333 251.302 26.366C251.653 26.8987 251.829 27.6353 251.829 28.576C251.829 29.3807 251.704 30.004 251.455 30.446C251.217 30.888 250.826 31.1997 250.282 31.381C249.738 31.551 249.024 31.636 248.14 31.636C247.494 31.636 246.939 31.6303 246.474 31.619C246.021 31.619 245.596 31.6077 245.199 31.585C244.814 31.5623 244.411 31.534 243.992 31.5V19.77C244.366 19.7247 244.723 19.6963 245.063 19.685C245.403 19.6623 245.771 19.651 246.168 19.651C246.576 19.6397 247.058 19.634 247.613 19.634ZM247.562 20.603C247.052 20.603 246.587 20.603 246.168 20.603C245.76 20.603 245.397 20.603 245.08 20.603V24.989H247.851C248.474 24.989 248.967 24.9267 249.33 24.802C249.704 24.6773 249.97 24.462 250.129 24.156C250.299 23.8387 250.384 23.3853 250.384 22.796C250.384 22.1953 250.293 21.7363 250.112 21.419C249.931 21.1017 249.636 20.8863 249.228 20.773C248.82 20.6597 248.265 20.603 247.562 20.603ZM247.851 25.856H245.08V30.65C245.431 30.6613 245.856 30.667 246.355 30.667C246.854 30.667 247.398 30.667 247.987 30.667C248.656 30.667 249.188 30.6103 249.585 30.497C249.982 30.3723 250.265 30.1513 250.435 29.834C250.605 29.5053 250.69 29.0293 250.69 28.406C250.69 27.7373 250.599 27.2217 250.418 26.859C250.237 26.4963 249.936 26.2413 249.517 26.094C249.109 25.9467 248.554 25.8673 247.851 25.856ZM256.456 19.753C257.295 19.753 258.139 19.7587 258.989 19.77C259.839 19.7813 260.666 19.8097 261.471 19.855L261.42 20.722H256.643C255.872 20.722 255.487 21.1243 255.487 21.929V24.819H260.74V25.72H255.487V29.341C255.487 30.157 255.872 30.565 256.643 30.565H261.42L261.471 31.415C260.666 31.4603 259.839 31.4887 258.989 31.5C258.139 31.5113 257.295 31.517 256.456 31.517C255.833 31.517 255.328 31.3413 254.943 30.99C254.569 30.6387 254.382 30.1683 254.382 29.579V21.691C254.382 21.1017 254.569 20.6313 254.943 20.28C255.328 19.9287 255.833 19.753 256.456 19.753ZM267.891 19.617C268.764 19.617 269.466 19.719 269.999 19.923C270.532 20.1157 270.917 20.4557 271.155 20.943C271.404 21.419 271.529 22.099 271.529 22.983C271.529 23.969 271.359 24.7 271.019 25.176C270.69 25.6407 270.141 25.9297 269.37 26.043V26.111C269.665 26.2017 269.937 26.3887 270.186 26.672C270.435 26.9553 270.628 27.3237 270.764 27.777L271.954 31.5H270.764L269.642 27.811C269.472 27.3237 269.251 26.978 268.979 26.774C268.707 26.57 268.361 26.468 267.942 26.468C267.319 26.468 266.763 26.468 266.276 26.468C265.8 26.4567 265.392 26.4453 265.052 26.434V31.5H263.947V19.77C264.355 19.7247 264.74 19.6907 265.103 19.668C265.477 19.6453 265.879 19.634 266.31 19.634C266.752 19.6227 267.279 19.617 267.891 19.617ZM267.857 20.603C267.29 20.603 266.763 20.603 266.276 20.603C265.8 20.603 265.392 20.6087 265.052 20.62V25.499H267.857C268.492 25.4877 268.99 25.414 269.353 25.278C269.727 25.1307 269.993 24.8813 270.152 24.53C270.311 24.1673 270.39 23.6687 270.39 23.034C270.39 22.388 270.311 21.8893 270.152 21.538C269.993 21.1867 269.727 20.943 269.353 20.807C268.99 20.671 268.492 20.603 267.857 20.603Z" fill="white"/>
<defs>
<clipPath id="clip0">
<rect width="26.064" height="27.15" fill="white" transform="translate(86.468 11.425)"/>
</clipPath>
</defs>
</svg>
