<svg width="50" height="50" viewBox="0 0 50 50" fill="none" xmlns="http://www.w3.org/2000/svg">
<rect width="50" height="50" rx="25" fill="#7360F2"/>
<g clip-path="url(#clip0)">
<path d="M35.1214 14.6487C34.4385 14.0262 31.6786 12.047 25.5312 12.0202C25.5312 12.0202 18.2818 11.5883 14.7479 14.7904C12.7807 16.7341 12.0886 19.5781 12.0156 23.1041C11.9426 26.6301 11.8482 33.2381 18.2963 35.0298H18.3024L18.2983 37.7638C18.2983 37.7638 18.2571 38.8707 18.9949 39.0964C19.8873 39.3702 20.4111 38.5289 21.2632 37.6221C21.7308 37.1242 22.3767 36.3929 22.8633 35.834C27.2732 36.2007 30.6649 35.3626 31.0501 35.2388C31.9405 34.9536 36.9789 34.3156 37.7984 27.7085C38.6442 20.8981 37.3893 16.5903 35.1214 14.6487ZM35.8687 27.22C35.1771 32.737 31.0905 33.0837 30.337 33.3224C30.0166 33.4243 27.0377 34.1563 23.2918 33.9148C23.2918 33.9148 20.5006 37.2411 19.6288 38.106C19.4927 38.2413 19.3327 38.2959 19.2258 38.269C19.0757 38.2327 19.0345 38.0571 19.0361 37.8005C19.0386 37.4338 19.06 33.2572 19.06 33.2572C19.06 33.2572 19.0567 33.2572 19.06 33.2572C13.6055 31.7613 13.9235 26.1372 13.9853 23.1921C14.0472 20.2471 14.6072 17.8345 16.2709 16.2118C19.2601 13.5373 25.4178 13.9369 25.4178 13.9369C30.6179 13.9594 33.1097 15.5062 33.6875 16.0244C35.606 17.6471 36.5834 21.53 35.8687 27.2184V27.22Z" fill="white"/>
<path d="M28.0622 22.9495C27.9945 21.6027 27.302 20.8953 25.9844 20.8274" stroke="white" stroke-width="0.910763" stroke-linecap="round" stroke-linejoin="round"/>
<path d="M29.8459 23.5403C29.8733 22.2855 29.4971 21.2371 28.7171 20.3952C27.9335 19.5502 26.8489 19.085 25.457 18.9844" stroke="white" stroke-width="0.910763" stroke-linecap="round" stroke-linejoin="round"/>
<path d="M31.6721 24.2459C31.6553 22.0685 30.9967 20.3536 29.6962 19.1013C28.3957 17.849 26.7784 17.2161 24.8442 17.2028" stroke="white" stroke-width="0.910763" stroke-linecap="round" stroke-linejoin="round"/>
<path d="M26.0533 27.5494C26.0533 27.5494 26.5421 27.5902 26.8052 27.27L27.3182 26.6324C27.5657 26.3163 28.1628 26.1146 28.7476 26.4364C29.1859 26.6833 29.6113 26.9517 30.0224 27.2406C30.4105 27.5226 31.2052 28.1776 31.2077 28.1776C31.5863 28.4934 31.6737 28.957 31.4159 29.4459C31.4159 29.4487 31.4139 29.4536 31.4139 29.4561C31.13 29.9422 30.7696 30.3806 30.3461 30.7548C30.3412 30.7573 30.3412 30.7597 30.3367 30.7622C29.9688 31.0658 29.6074 31.2384 29.2524 31.28C29.2002 31.289 29.147 31.2923 29.0941 31.2897C28.9375 31.2912 28.7818 31.2676 28.633 31.2197L28.6214 31.203C28.0746 31.0506 27.1615 30.6693 25.6409 29.8406C24.761 29.3668 23.9233 28.8201 23.1368 28.2066C22.7425 27.8992 22.3665 27.5698 22.0105 27.2199L21.9725 27.1824L21.9346 27.1449L21.8966 27.1074C21.8839 27.0952 21.8715 27.0826 21.8587 27.0699C21.5045 26.7183 21.171 26.3468 20.8598 25.9573C20.2388 25.1805 19.6855 24.3531 19.2057 23.4841C18.3668 21.9816 17.9808 21.0804 17.8266 20.5394L17.8097 20.528C17.7613 20.381 17.7375 20.2271 17.7391 20.0725C17.7362 20.0202 17.7394 19.9677 17.7486 19.9161C17.7929 19.566 17.9679 19.2087 18.2736 18.8442C18.2761 18.8398 18.2786 18.8398 18.281 18.8349C18.6598 18.4166 19.1036 18.0607 19.5958 17.7805C19.5983 17.7805 19.6032 17.7781 19.6061 17.7781C20.101 17.5235 20.5703 17.6098 20.8895 17.9818C20.892 17.9842 21.5539 18.7693 21.8381 19.1526C22.1306 19.5591 22.4023 19.9798 22.6522 20.4131C22.978 20.9904 22.7738 21.5815 22.4538 21.8251L21.8084 22.3319C21.4826 22.5919 21.5255 23.0746 21.5255 23.0746C21.5255 23.0746 22.4815 26.6487 26.0533 27.5494Z" fill="white"/>
</g>
<defs>
<clipPath id="clip0">
<rect width="26.064" height="27.15" fill="white" transform="translate(12 12)"/>
</clipPath>
</defs>
</svg>
